<svg width="216" height="206" viewBox="0 0 216 206" fill="none" xmlns="http://www.w3.org/2000/svg">
<path d="M144.951 112.992C145.7 113.206 146.14 113.292 146.205 113.228C146.28 113.121 146.366 39.2437 146.312 15.0648C146.312 14.9362 146.119 14.7859 145.701 14.6038C144.608 14.1323 144.425 14.0568 142.078 13.1136C141.017 12.6848 139.591 12.1062 138.916 11.8275C138.241 11.5488 136.794 10.9593 135.7 10.5198C133.621 9.68373 133.524 9.64073 132.323 9.11554C131.916 8.93335 131.294 8.67588 130.951 8.55792C130.608 8.42937 130.19 8.258 130.04 8.17218C129.88 8.0866 129.687 8.02206 129.611 8.02179C129.536 8.02179 129.396 7.97865 129.289 7.91437C129.192 7.86042 128.742 7.6676 128.303 7.48566C127.863 7.2928 127.36 7.07829 127.178 7.00323C127.006 6.9282 126.448 6.69323 125.944 6.48956C125.441 6.28599 124.894 6.06077 124.712 5.98566C124.54 5.91064 124.294 5.81368 124.176 5.76007C124.058 5.71713 123.726 5.57805 123.426 5.44952C123.136 5.3209 122.311 4.99875 121.604 4.73077C120.896 4.46287 120.178 4.18484 119.995 4.10968C118.581 3.499 115.25 2.12788 115.171 2.12628C115.105 2.12536 114.441 1.83571 113.563 1.43976C113.274 1.30041 112.694 1.05368 112.276 0.892883C111.869 0.721511 111.484 0.550051 111.43 0.496399C111.365 0.453624 111.248 0.410541 111.151 0.410461C111.066 0.410461 110.797 0.314462 110.572 0.185852C110.347 0.0679825 110.057 -0.0181237 109.929 0.00323486L109.704 0.0354614L109.672 9.89777C109.661 15.3221 109.672 19.857 109.704 19.9749C109.726 20.0929 109.94 20.3818 110.154 20.6282C110.379 20.8641 111.023 21.615 111.58 22.2796C112.138 22.9442 112.909 23.8558 113.295 24.306C113.681 24.7561 114.281 25.4846 114.635 25.9241C114.977 26.3627 115.299 26.7481 115.332 26.7816C115.375 26.8143 115.761 27.2968 116.2 27.8538C116.629 28.411 117.101 28.9896 117.229 29.14C117.358 29.2901 117.616 29.6122 117.819 29.8587C118.013 30.106 119.138 31.4561 120.316 32.8597C121.506 34.2639 122.729 35.7432 123.051 36.1614C123.565 36.8153 124.154 37.5447 125.022 38.5735C126.116 39.8921 127.006 40.9325 127.264 41.2005C127.821 41.801 128.624 43.0876 128.785 43.6663C129.074 44.6415 128.678 45.7345 127.778 46.5169C126.706 47.4388 128.55 47.3646 108.332 47.3646C88.6937 47.3753 89.9254 47.407 88.875 46.7318C88.2963 46.3567 88.1456 46.2067 87.792 45.5423C87.4061 44.8456 87.417 43.891 87.8242 43.0228C88.0708 42.4975 88.6715 41.6179 88.9609 41.3607C88.9953 41.3258 89.4449 40.7912 89.958 40.1605C90.4725 39.5388 90.9445 38.9601 91.0195 38.8743C91.0947 38.7991 91.3728 38.4663 91.6406 38.1448C91.9081 37.8239 92.1439 37.5354 92.1875 37.5023C92.2038 37.4859 92.3082 37.3574 92.4619 37.1634L93.6064 35.6966C93.7607 35.5023 93.8658 35.3738 93.8818 35.3577C93.9259 35.3239 94.1608 35.0354 94.4277 34.7151L95.5 33.428C96.1323 32.6564 96.2939 32.4639 97.1836 31.4456C97.8375 30.6845 98.5122 29.8476 100.099 27.8646C100.367 27.5322 101.161 26.5678 101.868 25.721C102.586 24.8745 103.293 24.0062 103.465 23.8021C103.625 23.5883 103.796 23.3849 103.84 23.3519C103.894 23.3194 104.119 23.0512 104.354 22.7513C104.783 22.2047 105.544 21.3044 106.188 20.5755C106.38 20.3611 106.564 20.039 106.596 19.8675C106.628 19.6821 106.638 15.1491 106.627 9.79132L106.596 0.0354614L106.327 0.0139771C106.177 0.00331492 105.867 0.0788194 105.631 0.196594C105.149 0.421673 104.751 0.582394 103.755 1.00031C103.026 1.2897 102.811 1.38621 101.793 1.84698C101.45 1.99691 101.139 2.12601 101.096 2.12628C101.074 2.13177 101.007 2.1553 100.916 2.19269L100.268 2.48761C100.177 2.52503 100.109 2.54957 100.088 2.55499C100.044 2.55563 99.7552 2.67287 99.4453 2.80109C99.1345 2.9404 98.7057 3.12346 98.502 3.19855C98.2983 3.27358 97.9331 3.42338 97.6973 3.53058C97.46 3.62766 95.8958 4.2707 94.2139 4.94562C90.7625 6.33903 90.7082 6.36047 89.9795 6.68195C89.6902 6.8105 89.2722 6.98183 89.0684 7.05695C88.8648 7.13195 88.4897 7.2828 88.2432 7.4007C87.8573 7.56148 87.192 7.83953 85.7451 8.42902C85.5951 8.48261 85.2837 8.61181 85.0479 8.69757C84.6826 8.83727 82.8392 9.61964 81.7246 10.1126C81.5526 10.1878 80.9418 10.4238 80.3848 10.6487C79.8277 10.863 79.0992 11.1519 78.7773 11.2913C78.4558 11.4307 77.6833 11.742 77.0615 11.9886C75.7647 12.503 74.7998 12.9099 74.3066 13.1243C74.1245 13.21 73.9209 13.2746 73.8564 13.2747C73.7921 13.2748 73.653 13.3179 73.5459 13.3821C73.4494 13.4357 72.9775 13.6287 72.5059 13.8216C72.0343 14.0038 71.5085 14.2182 71.3262 14.2933C71.1546 14.3683 70.8119 14.4966 70.5869 14.5716C70.3618 14.6573 70.1044 14.8189 70.0293 14.9476C69.9009 15.1403 69.879 22.962 69.9004 63.9368L69.9326 112.702L70.1689 112.735C70.3189 112.756 70.4583 112.681 70.5762 112.498C70.6732 112.359 71.2947 111.769 71.9482 111.18C73.063 110.215 73.3845 109.926 74.1562 109.229C74.3064 109.089 74.746 108.682 75.1318 108.318C75.5178 107.942 76.1189 107.385 76.4727 107.075C76.8266 106.763 77.791 105.863 78.6162 105.091C79.4416 104.319 80.3854 103.44 80.707 103.151C81.0281 102.862 81.3385 102.573 81.4033 102.508C81.4573 102.444 82.0358 101.918 82.6895 101.328C84.1042 100.053 84.0191 100.139 85.0156 99.1741L85.8203 98.3909V75.5042C85.8203 62.9198 85.8526 52.6039 85.874 52.553C85.953 52.5317 95.3789 52.5101 106.874 52.5101C126.394 52.5101 127.83 52.5205 127.96 52.6917C128.121 52.9172 128.142 55.2535 127.981 55.3509C127.902 55.3937 119.139 55.4261 108.493 55.4261C95.2784 55.4261 89.0914 55.4577 88.9932 55.5325C88.886 55.6183 88.8535 57.7411 88.8535 65.4808C88.8535 74.2497 88.8753 75.3326 89.0254 75.4505C89.1564 75.5683 92.8897 75.6009 108.524 75.6009C122.222 75.6116 127.885 75.6432 127.981 75.7288C128.056 75.8041 128.089 76.3405 128.067 77.2298L128.035 78.6126L108.589 78.6448C94.4321 78.6556 89.1033 78.6988 88.9932 78.7845C88.8752 78.881 88.8535 80.5746 88.8535 88.4749C88.8535 99.2792 88.7787 98.4131 89.7109 98.595C89.9793 98.6487 91.4272 99.0022 92.9277 99.3987C94.4284 99.7846 95.854 100.16 96.0898 100.213C98.1265 100.738 99.4024 101.071 99.8955 101.221C100.217 101.317 100.731 101.447 101.021 101.511C101.61 101.64 103.294 102.068 104.13 102.293C104.43 102.379 105.459 102.647 106.435 102.894C108.407 103.387 109.887 103.784 112.148 104.395C112.567 104.513 113.381 104.727 113.938 104.877C114.496 105.017 115.514 105.284 116.189 105.466C116.865 105.648 117.637 105.841 117.905 105.895C118.173 105.959 118.581 106.067 118.816 106.153C119.053 106.239 120.232 106.56 121.432 106.86C122.632 107.16 124.079 107.525 124.647 107.675C125.216 107.825 125.967 108.018 126.32 108.093C126.674 108.168 127.403 108.35 127.928 108.5C128.464 108.65 129.139 108.822 129.429 108.886C129.729 108.95 130.404 109.122 130.93 109.272C131.466 109.422 132.237 109.626 132.645 109.743C133.674 110.022 136.728 110.827 137.254 110.955C137.49 111.009 138.358 111.234 139.184 111.47C140.566 111.845 141.167 112.005 143.097 112.488C143.483 112.584 144.319 112.809 144.951 112.992ZM108.225 44.47C123.715 44.47 125.419 44.4482 125.483 44.2982C125.569 44.0623 125.398 43.7515 124.712 42.9691C123.897 42.0472 123.715 41.8329 123.211 41.2005C122.503 40.3001 120.263 37.5984 119.566 36.805C119.213 36.387 118.73 35.8083 118.494 35.5189C118.258 35.2189 118.044 34.9615 118.012 34.929C117.979 34.8955 117.658 34.5102 117.315 34.0716C116.747 33.3534 115.922 32.3564 113.456 29.4085C113.059 28.9369 112.631 28.4327 112.502 28.2825C112.384 28.1324 112.062 27.7466 111.794 27.4251C111.526 27.1038 111.227 26.7396 111.13 26.6214C111.033 26.5035 110.711 26.1177 110.433 25.7532C110.154 25.3995 109.565 24.6593 109.125 24.1234C108.697 23.5774 108.311 23.1382 108.268 23.1478C108.053 23.1692 107.871 23.3409 107.217 24.1341C106.821 24.6157 106.468 25.0334 106.435 25.0667C106.402 25.0989 105.92 25.6776 105.362 26.3528C104.805 27.0277 104.323 27.6071 104.29 27.64C104.254 27.6764 103.774 28.2535 103.219 28.9261C102.662 29.6005 102.18 30.1787 102.146 30.2122C102.114 30.2444 101.686 30.7809 101.203 31.4134C100.71 32.0456 100.26 32.6242 100.185 32.6995C100.034 32.8718 98.8654 34.2548 97.3115 36.1087C96.701 36.8477 96.1764 37.4693 96.1436 37.5023C96.0254 37.6205 95.0282 38.8312 93.7314 40.4495C92.2843 42.2397 92.1232 42.433 91.2979 43.3655C90.7619 43.9551 90.6977 44.1267 90.9121 44.3411C91.0109 44.4375 95.0109 44.47 108.225 44.47ZM111.001 67.6253C109.297 67.6253 109.232 67.614 109.007 67.3782C108.868 67.2388 108.707 66.9597 108.643 66.7562C108.525 66.4029 108.503 66.3918 107.86 66.3382C107.496 66.3061 107.163 66.2424 107.109 66.1995C107.002 66.0921 106.917 64.366 107.014 64.1409C107.068 64.0017 107.637 63.9798 111.141 63.9798C114.742 63.9798 115.214 64.0016 115.268 64.1517C115.375 64.4305 115.342 65.8024 115.225 66.0276C115.128 66.1884 114.989 66.2317 114.475 66.2318H113.831L113.553 66.8099C113.392 67.1528 113.177 67.432 113.017 67.5071C112.856 67.5822 112.073 67.6253 111.001 67.6253ZM113.617 91.8626C113.113 92.7845 113.274 92.7414 111.119 92.6878C109.2 92.6556 109.2 92.656 108.975 92.3773C108.846 92.2164 108.653 91.9481 108.557 91.7552C108.407 91.4769 108.31 91.4232 107.968 91.4232C107.743 91.4232 107.442 91.3585 107.292 91.2835C107.046 91.1657 107.035 91.1014 107.014 90.2444C107.014 89.7413 107.056 89.2697 107.109 89.1937C107.184 89.0972 108.139 89.0648 111.205 89.0648C114.657 89.0648 115.214 89.0865 115.268 89.2259C115.364 89.4838 115.203 91.1021 115.074 91.1878C115.009 91.2306 114.72 91.2837 114.421 91.3157C113.917 91.3693 113.874 91.3912 113.617 91.8626ZM2.92285 179.97C4.80914 179.97 5.34487 179.938 5.44141 179.82C5.52712 179.722 5.5488 177.546 5.53809 171.941C5.50593 165.167 5.52773 164.191 5.66699 164.105C5.76491 164.041 8.14434 164.008 11.7021 164.008C14.9335 164.019 17.5989 163.986 17.6514 163.944C17.6942 163.9 17.7374 163.01 17.7588 161.971C17.7909 160.29 17.7698 160.042 17.6094 159.881C17.4486 159.71 16.9868 159.699 11.627 159.752C8.44532 159.784 5.76685 159.774 5.68848 159.72C5.57056 159.656 5.54883 158.433 5.54883 153.395C5.54883 149.967 5.58114 147.117 5.61328 147.06C5.65783 146.996 8.2626 146.952 12.6777 146.952C17.9733 146.952 19.6994 146.92 19.7959 146.824C19.9778 146.638 19.978 142.869 19.7959 142.686C19.6985 142.589 17.393 142.557 10.0732 142.557C4.79067 142.557 0.406981 142.6 0.328125 142.643C0.253112 142.697 0.18943 142.858 0.178711 142.997C0.168022 143.152 0.168002 151.454 0.178711 161.446C0.200138 177.805 0.221258 179.646 0.371094 179.798C0.510506 179.948 0.897083 179.97 2.92285 179.97ZM69.6006 180.238C70.9192 180.484 74.3287 180.495 75.5078 180.248C78.4982 179.648 80.4921 178.426 81.8105 176.39C82.7646 174.911 83.076 174.149 83.4727 172.251L83.751 170.911L83.7939 156.879C83.8154 146.794 83.7937 142.816 83.708 142.718C83.5345 142.515 78.9947 142.547 78.7451 142.75C78.6058 142.868 78.5948 144.262 78.6377 155.882C78.6913 169.527 78.6592 170.911 78.2412 172.251C77.3729 174.996 75.7325 176.1 72.5703 176.111C71.1126 176.111 70.2117 175.918 69.2471 175.393C68.0037 174.718 67.4354 174.031 66.9209 172.606C66.342 171.03 66.3418 170.89 66.3418 156.343C66.3418 144.264 66.3199 142.879 66.1699 142.729C66.0304 142.579 65.6438 142.557 63.6729 142.557C61.6258 142.557 61.3142 142.579 61.1855 142.74C60.9604 142.997 61.0249 169.631 61.25 171.254C61.5502 173.377 62.0322 174.782 62.9541 176.218C64.3262 178.33 66.5455 179.68 69.6006 180.238ZM126.931 179.884C127.168 180.023 131.884 179.991 132.034 179.841C132.13 179.739 132.162 177.839 132.162 171.973C132.162 166.24 132.195 164.203 132.291 164.148C132.475 164.03 137.801 164.093 138.509 164.222C139.827 164.447 141.017 165.198 141.649 166.195C142.432 167.406 142.84 169.122 143.258 172.949C143.697 176.958 144.233 179.113 144.94 179.702L145.262 179.97H147.685C149.025 179.97 150.194 179.927 150.279 179.863C150.408 179.777 150.397 179.691 150.183 179.199C149.304 177.194 148.789 174.964 148.457 171.695C148.157 168.768 147.545 166.399 146.73 165.048C146.152 164.105 145.112 163.129 144.223 162.722C143.504 162.39 143.365 162.196 143.74 162.1C144.234 161.971 145.53 161.274 145.991 160.909C147.535 159.645 148.499 158.09 149.057 155.957C149.443 154.51 149.464 152.023 149.11 150.383C148.757 148.732 148.435 147.949 147.567 146.642C146.967 145.742 146.163 144.948 145.198 144.326C143.601 143.287 142.014 142.825 139.463 142.664C138.016 142.568 127.415 142.546 126.995 142.643C126.888 142.664 126.803 142.74 126.803 142.804C126.792 142.88 126.792 151.231 126.803 161.361C126.803 176 126.834 179.802 126.931 179.884ZM191.744 180.313C191.854 180.42 196.311 180.452 196.482 180.345C196.611 180.209 196.622 154.79 196.493 153.653C196.397 152.817 196.493 152.42 196.75 152.634C196.836 152.709 196.933 152.87 196.976 152.988C197.072 153.299 197.479 154.221 198.337 156.065C198.691 156.826 199.119 157.727 200.448 160.513C201.456 162.635 202.121 164.04 202.442 164.747C202.614 165.133 203.171 166.302 203.686 167.353C204.211 168.403 204.629 169.283 204.629 169.304C204.632 169.332 204.985 170.09 205.423 170.987C205.852 171.887 206.441 173.109 206.709 173.699C207.427 175.231 208.317 177.075 209.186 178.833L209.936 180.345L212.498 180.377C214.245 180.399 215.103 180.366 215.199 180.281C215.317 180.178 215.339 176.922 215.328 161.768C215.317 150.781 215.274 143.288 215.221 143.168C215.124 142.986 214.952 142.976 212.884 143.008C211.481 143.03 210.602 143.083 210.525 143.158C210.386 143.297 210.375 168.488 210.515 169.572C210.611 170.29 210.546 170.504 210.278 170.397C210.139 170.343 210 170.106 209.507 168.982C209.282 168.488 208.638 167.085 208.092 165.927C207.877 165.488 207.588 164.855 207.448 164.534C207.298 164.212 206.859 163.268 206.451 162.443C205.54 160.556 204.705 158.755 204.029 157.265C203.643 156.429 202.978 155.003 202.485 153.974C202.26 153.502 201.96 152.848 201.81 152.527C201.659 152.205 201.167 151.165 200.717 150.222C199.484 147.682 198.047 144.648 197.683 143.844C197.597 143.64 197.426 143.361 197.308 143.222C197.093 142.986 197.05 142.987 194.488 142.987C192.25 142.987 191.884 143.008 191.755 143.158C191.637 143.297 191.615 146.599 191.637 161.779C191.647 172.305 191.691 180.259 191.744 180.313ZM135.871 159.903C133.783 159.924 132.315 159.902 132.248 159.838C132.119 159.71 132.13 147.06 132.259 146.909C132.414 146.728 138.786 146.813 139.612 147.006C140.802 147.285 142.195 148.078 142.774 148.796C143.568 149.815 143.954 151.273 143.954 153.299C143.954 154.982 143.782 156 143.332 156.954C142.914 157.855 142.378 158.445 141.478 158.97C140.052 159.817 139.848 159.849 135.871 159.903ZM140.813 205.784C141.864 205.73 142.582 205.483 143.439 204.862C143.75 204.647 143.997 204.53 144.083 204.583C144.159 204.627 144.48 204.862 144.801 205.098C145.305 205.484 145.466 205.538 146.142 205.602C147.052 205.688 147.385 205.59 147.385 205.237C147.384 204.936 146.923 204.422 146.023 203.726C145.541 203.351 145.348 203.125 145.348 202.953C145.348 202.825 145.402 202.675 145.455 202.643C145.519 202.611 145.658 202.375 145.766 202.128C146.473 200.563 146.602 200.22 146.741 199.673C146.934 198.826 146.827 198.708 145.895 198.751L145.188 198.784L145.112 199.159C145.069 199.362 144.983 199.802 144.919 200.123C144.769 200.906 144.372 201.667 144.104 201.71C143.944 201.732 143.632 201.431 142.893 200.509C142.357 199.834 141.832 199.223 141.735 199.148C141.5 198.944 141.392 198.601 141.499 198.387C141.553 198.291 141.853 198.055 142.186 197.872C142.85 197.487 143.557 196.736 143.857 196.082C144.275 195.16 143.987 193.756 143.215 193.005C142.99 192.78 142.561 192.524 142.207 192.406C141.478 192.148 140.813 192.148 139.902 192.384C139.045 192.609 138.509 193.059 138.112 193.863C137.673 194.774 137.63 195.686 137.994 196.586C138.144 196.961 138.391 197.401 138.53 197.551C139.001 198.044 138.98 198.258 138.466 198.579C136.933 199.544 136.011 201.153 136.193 202.535C136.483 204.776 138.123 205.923 140.813 205.784ZM178.891 205.805C181.195 205.805 182.728 204.604 183.64 202.064C183.961 201.185 184.047 197.68 183.779 196.554C183.254 194.356 181.967 192.867 180.188 192.406C179.33 192.181 179.116 192.17 178.098 192.298C176.833 192.47 176.061 192.856 175.139 193.788C174.142 194.817 173.702 195.965 173.552 197.98C173.177 202.922 175.149 205.805 178.891 205.805ZM18.96 205.751C20.2028 205.741 20.4926 205.709 21.0068 205.505C22.1645 205.044 23.0542 203.854 23.3008 202.428C23.44 201.58 23.4301 192.767 23.2803 192.609C23.1624 192.502 21.8338 192.448 21.6719 192.544C21.5647 192.609 21.5322 193.638 21.5322 197.047C21.5322 202.664 21.4465 203.136 20.332 203.832C19.8282 204.154 18.7985 204.283 18.1445 204.101C17.5336 203.94 16.9124 203.457 16.6016 202.9L16.333 202.428L16.3115 197.562C16.2901 194.1 16.2478 192.663 16.1621 192.555C16.0013 192.362 14.5536 192.351 14.3711 192.534C14.2104 192.697 14.1898 201.624 14.3506 202.492C14.4899 203.254 14.8858 204.037 15.3896 204.583C16.2579 205.505 17.009 205.751 18.96 205.751ZM211.308 205.676C214.331 205.655 215.199 205.612 215.317 205.505C215.51 205.312 215.499 204.263 215.307 204.101C215.189 204.004 214.363 203.972 212.38 203.972C210.783 203.983 209.55 203.94 209.453 203.875C209.228 203.735 209.153 200.06 209.367 199.77C209.507 199.588 209.7 199.577 211.693 199.587C213.203 199.587 213.911 199.556 214.02 199.47C214.223 199.298 214.223 198.365 214.02 198.194C213.901 198.108 213.235 198.077 211.704 198.087C210.204 198.087 209.496 198.055 209.389 197.969C209.174 197.798 209.175 194.573 209.378 194.292C209.517 194.11 209.721 194.099 212.229 194.11C214.18 194.131 214.974 194.099 215.092 194.002C215.285 193.841 215.295 192.695 215.113 192.534C214.927 192.394 207.643 192.362 207.416 192.512C207.277 192.598 207.256 193.425 207.288 199.062C207.309 202.61 207.352 205.552 207.384 205.622C207.417 205.676 209.122 205.698 211.308 205.676ZM1.12207 205.57L1.96875 205.537L2.00098 202.761C2.01168 200.876 2.06479 199.933 2.15039 199.834C2.24699 199.716 2.70888 199.684 4.3916 199.705C5.54916 199.705 6.55678 199.684 6.62109 199.641C6.7709 199.554 6.771 198.334 6.62109 198.237C6.57278 198.213 6.01795 198.189 5.27344 198.183H3.6084C2.83184 198.175 2.34112 198.143 2.23633 198.087C2.03267 197.98 2.02246 197.872 2.02246 196.179C2.02246 195.194 2.06469 194.327 2.11816 194.239C2.20403 194.11 2.66614 194.088 4.90625 194.11L7.59668 194.142L7.7041 193.852C7.85388 193.445 7.83238 192.77 7.66113 192.63C7.46828 192.469 0.443427 192.373 0.157227 192.534C-0.0250077 192.63 -0.025252 192.995 0.0390625 199.03C0.0712224 202.556 0.146573 205.473 0.189453 205.516C0.234542 205.559 0.651872 205.591 1.12207 205.57ZM76.6543 205.548C76.7629 205.644 78.3775 205.601 78.4766 205.505C78.5623 205.419 78.5947 203.831 78.5732 199.973C78.5518 196.178 78.5842 194.495 78.6699 194.345C78.777 194.131 78.8745 194.12 80.3848 194.12C81.2518 194.12 82.0443 194.088 82.1426 194.056C82.2711 194.002 82.3144 193.831 82.3145 193.252C82.3145 192.845 82.2821 192.513 82.2393 192.512C82.1783 192.501 80.1444 192.49 77.6836 192.469C74.5469 192.437 73.1955 192.459 73.1064 192.544C72.9778 192.673 72.9456 193.67 73.0527 193.949C73.1064 194.099 73.3635 194.12 74.7676 194.12C76.2254 194.12 76.4182 194.142 76.5146 194.314C76.5682 194.425 76.6114 196.771 76.6221 200.005C76.6221 203.028 76.6436 205.527 76.6543 205.548ZM91.4805 205.537C92.2528 205.837 94.4502 205.838 95.2861 205.537C96.4115 205.141 97.0548 204.54 97.5693 203.425C97.9123 202.675 97.9658 201.924 97.9658 197.272C97.9658 192.953 97.9546 192.619 97.7832 192.534C97.5574 192.427 96.3486 192.437 96.165 192.555C96.0686 192.609 96.0361 193.713 96.0361 197.112C96.0361 201.774 95.9718 202.579 95.5859 203.211C95.0927 204.004 93.8919 204.369 92.7021 204.09C91.8982 203.897 91.1803 203.168 91.0088 202.385C90.9338 202.02 90.8906 200.219 90.8906 197.229C90.8906 193.671 90.8581 192.609 90.7617 192.544C90.5359 192.416 89.069 192.437 88.9502 192.587C88.8108 192.748 88.8216 201.871 88.9609 202.6C89.229 204.026 90.0548 204.991 91.4805 205.537ZM105.705 205.537C105.802 205.634 107.357 205.677 107.507 205.591C107.625 205.516 107.645 204.978 107.624 202.825L107.603 200.134L107.839 200.005C108.011 199.92 108.418 199.899 109.136 199.942C110.368 200.006 110.701 200.156 111.227 200.896C111.526 201.314 111.633 201.614 111.837 202.718C111.976 203.447 112.127 204.262 112.159 204.54C112.202 204.819 112.33 205.162 112.448 205.312C112.652 205.569 112.728 205.591 113.617 205.591C114.141 205.591 114.601 205.548 114.635 205.484C114.667 205.43 114.592 205.151 114.464 204.872C114.335 204.583 114.175 204.047 114.1 203.661C113.574 200.918 113.477 200.627 112.717 199.942C112.449 199.695 112.224 199.438 112.224 199.373C112.224 199.309 112.384 199.169 112.577 199.073C113.617 198.526 114.367 197.272 114.367 196.061C114.367 194.506 113.52 193.295 112.009 192.673C111.58 192.491 111.194 192.469 108.696 192.469C106.874 192.458 105.813 192.501 105.716 192.576C105.577 192.674 105.567 193.597 105.609 199.083C105.631 202.607 105.673 205.51 105.705 205.537ZM125.849 205.57L129.75 205.537V204.036L126.866 204.004C124.884 203.983 123.93 203.94 123.833 203.854C123.715 203.757 123.683 203.339 123.715 201.721C123.736 200.617 123.779 199.684 123.822 199.641C123.868 199.598 124.917 199.576 126.148 199.576L128.41 199.598L128.518 199.32C128.582 199.159 128.625 198.88 128.625 198.698C128.625 198.033 128.635 198.033 126.202 198.012C124.992 198.001 123.931 197.969 123.844 197.937C123.726 197.894 123.693 197.529 123.693 196.061C123.693 194.324 123.705 194.228 123.919 194.12C124.07 194.035 125.003 194.002 126.738 194.024C128.175 194.034 129.397 194.013 129.461 193.97C129.621 193.873 129.632 192.663 129.482 192.566C129.363 192.491 122.178 192.426 121.957 192.501C121.882 192.523 121.785 192.587 121.753 192.641C121.635 192.828 121.71 205.366 121.828 205.484C121.904 205.559 123.309 205.58 125.849 205.57ZM47.3135 205.451C47.3887 205.666 48.804 205.634 48.9756 205.43C49.0934 205.29 49.0936 204.39 49.0186 200.788C48.9543 198.336 48.9543 196.236 48.9971 196.136C49.1364 195.836 49.3721 196.029 49.833 196.822C50.0688 197.229 50.2617 197.594 50.2617 197.616C50.2632 197.639 50.3704 197.842 50.5088 198.066C50.6482 198.28 50.9371 198.773 51.1406 199.159C51.355 199.544 51.731 200.22 51.9775 200.659C52.2241 201.099 52.7705 202.085 53.1885 202.857C53.6065 203.618 54.1108 204.54 54.3252 204.894L54.7109 205.537L55.5684 205.57C56.2543 205.591 56.4475 205.569 56.5547 205.43C56.6511 205.29 56.662 203.735 56.6299 199.02C56.5977 195.591 56.5654 192.729 56.5332 192.662C56.4903 192.502 55.3218 192.405 55 192.523L54.7539 192.619L54.7754 197.026C54.7754 199.428 54.7643 201.438 54.7324 201.474C54.5931 201.613 54.2175 201.206 54.0674 200.756C53.9709 200.477 53.7242 199.973 53.5205 199.63C53.3061 199.276 53.028 198.804 52.8887 198.569C52.4493 197.776 52.2239 197.39 51.9023 196.854C51.4843 196.146 50.8404 194.956 50.1543 193.606C49.8114 192.952 49.5223 192.502 49.415 192.501C48.8042 192.448 47.4321 192.469 47.3135 192.534C47.2065 192.599 47.1856 193.781 47.2178 198.966C47.2499 202.46 47.292 205.387 47.3135 205.451ZM65.3662 205.57C66.0197 205.591 66.2988 205.559 66.3525 205.462C66.4918 205.246 66.4703 192.657 66.3311 192.566C66.1483 192.448 64.7139 192.448 64.5518 192.566C64.4338 192.651 64.4122 193.767 64.4336 199.105L64.4658 205.537L65.3662 205.57ZM154.449 205.516C154.569 205.634 155.884 205.655 156.067 205.537C156.164 205.483 156.175 204.356 156.121 200.916C156.078 198.422 156.078 196.28 156.121 196.158C156.239 195.793 156.475 195.911 156.614 196.393C156.786 197.004 158.083 200.981 158.201 201.249C158.319 201.519 159.123 204.089 159.284 204.733C159.477 205.472 159.638 205.591 160.42 205.591C160.795 205.591 161.128 205.537 161.16 205.484C161.203 205.419 161.321 204.99 161.428 204.53C161.546 204.069 162.018 202.514 162.5 201.077C163.722 197.39 163.765 197.229 163.851 196.693C163.936 196.104 164.076 195.803 164.247 195.867C164.343 195.901 164.387 197.156 164.43 200.724L164.483 205.537H166.306L166.359 199.159C166.402 194.251 166.381 192.749 166.284 192.63C166.113 192.427 163.797 192.459 163.614 192.652C163.55 192.727 163.368 193.21 163.207 193.745C163.036 194.271 162.768 195.118 162.586 195.621C162.136 196.929 161.224 199.824 160.978 200.756C160.86 201.195 160.699 201.698 160.613 201.87C160.388 202.299 160.109 202.214 159.991 201.678C159.82 200.928 159.209 198.847 158.533 196.746C158.34 196.157 157.998 195.043 157.762 194.282C157.526 193.51 157.301 192.824 157.258 192.738C157.215 192.652 157.087 192.555 156.979 192.523C156.669 192.426 154.537 192.502 154.428 192.609C154.299 192.737 154.321 205.387 154.449 205.516ZM38.877 205.591C39.8524 205.591 40.0781 205.515 40.0781 205.204C40.078 205.076 40.0242 204.926 39.9707 204.894C39.7242 204.744 39.5423 204.154 39.2314 202.6C38.8884 200.863 38.6196 200.295 37.9336 199.802C37.5051 199.502 37.5161 199.202 37.9658 199.02C38.1588 198.934 38.5348 198.644 38.8135 198.366C39.4243 197.765 39.7568 196.94 39.7568 196.061C39.7568 194.421 38.9095 193.274 37.3125 192.738C36.7122 192.534 36.4009 192.512 33.8711 192.512C32.1675 192.512 31.0635 192.555 31.0195 192.619C30.9016 192.802 30.9875 205.312 31.0947 205.451C31.1701 205.537 31.4916 205.591 31.9951 205.591C32.6703 205.591 32.799 205.558 32.8955 205.376C32.9705 205.247 32.9922 204.272 32.9814 202.643C32.9493 200.499 32.971 200.102 33.1104 200.005C33.3913 199.823 35.6819 199.941 36.0898 200.156C36.7544 200.52 37.1082 201.41 37.4512 203.608C37.7191 205.398 37.8589 205.591 38.877 205.591ZM192.194 205.591C192.901 205.591 193.063 205.559 193.138 205.398C193.191 205.3 193.244 204.079 193.255 202.697C193.266 201.314 193.319 200.134 193.373 200.08C193.503 199.952 195.721 200.006 195.989 200.145C196.654 200.499 197.158 201.507 197.447 203.072C197.619 204.047 197.95 205.279 198.079 205.409C198.144 205.473 198.637 205.527 199.173 205.537C200.309 205.559 200.384 205.483 200.052 204.797C199.762 204.218 199.483 203.329 199.483 202.996C199.483 202.578 199.001 200.864 198.744 200.36C198.616 200.103 198.39 199.856 198.251 199.802C197.844 199.652 197.908 199.308 198.391 199.062C198.948 198.772 199.312 198.354 199.655 197.625C199.912 197.058 199.933 196.907 199.891 196.018C199.837 194.839 199.601 194.26 198.926 193.595C198.669 193.338 198.176 193.006 197.822 192.856C197.19 192.588 197.114 192.576 194.273 192.534C191.992 192.501 191.338 192.523 191.272 192.63C191.176 192.791 191.187 205.334 191.283 205.494C191.328 205.548 191.734 205.591 192.194 205.591ZM140.76 197.229C139.913 197.229 139.237 195.374 139.73 194.409C139.945 193.992 140.117 193.82 140.438 193.702C141.232 193.381 142.154 193.885 142.379 194.764C142.422 194.914 142.368 195.289 142.271 195.621C142.036 196.372 141.231 197.229 140.76 197.229ZM178.805 204.197C177.969 204.197 177.518 204.015 176.939 203.404C175.985 202.428 175.578 201.067 175.589 198.966C175.589 197.519 175.761 196.426 176.104 195.697C176.436 194.978 177.186 194.27 177.808 194.077C178.472 193.874 178.847 193.874 179.533 194.077C180.133 194.249 180.788 194.774 181.152 195.353C181.27 195.546 181.495 196.061 181.635 196.49C181.871 197.186 181.902 197.444 181.902 198.934C181.902 201.195 181.603 202.342 180.788 203.307C180.274 203.897 179.619 204.197 178.805 204.197ZM194.788 198.516C194.027 198.516 193.566 198.473 193.448 198.376C193.298 198.269 193.276 197.958 193.255 196.232C193.233 194.593 193.266 194.185 193.384 194.11C193.47 194.045 194.21 194.013 195.057 194.034C196.568 194.067 196.579 194.066 196.976 194.399C197.726 195.01 197.822 195.214 197.822 196.253C197.822 197.143 197.801 197.208 197.469 197.636C196.954 198.29 196.257 198.516 194.788 198.516ZM36.1865 198.387C35.522 198.558 33.3052 198.558 33.1318 198.387C33.0461 198.301 33.0029 197.668 33.0029 196.242C33.0029 194.56 33.0247 194.228 33.1641 194.142C33.3276 194.056 35.6404 194.078 36.2832 194.185C36.98 194.292 37.7197 195.321 37.7197 196.168C37.7196 197.262 37.0976 198.162 36.1865 198.387ZM110.872 198.387C110.282 198.558 107.914 198.558 107.742 198.387C107.539 198.183 107.56 194.465 107.764 194.239C107.892 194.099 108.15 194.078 109.351 194.11C110.84 194.142 111.291 194.26 111.709 194.732C111.998 195.043 112.33 195.857 112.33 196.253C112.33 197.218 111.708 198.13 110.872 198.387ZM140.277 204.261C138.166 203.993 137.479 201.656 139.033 199.994C139.301 199.716 139.591 199.481 139.688 199.481C139.784 199.481 140.256 199.973 140.749 200.574C141.703 201.753 141.982 202.075 142.528 202.686C143.011 203.211 142.989 203.489 142.453 203.822C141.896 204.175 141.017 204.347 140.277 204.261Z" fill="white"/>
</svg>
