<svg width="67" height="90" viewBox="0 0 67 90" fill="none" xmlns="http://www.w3.org/2000/svg">
<rect width="66.9767" height="90" rx="8.37209" fill="#E9E9E9" fill-opacity="0.02"/>
<path d="M59.2844 81.8319H8.82837V61.2333H10.3284V80.3319H57.7844V61.2333H59.2844V81.8319ZM59.2844 29.7704H57.7844V10.493H10.3284V29.7704H8.82837V8.99304H59.2844V29.7704Z" fill="white"/>
<line x1="16.2173" y1="65.7081" x2="51.907" y2="65.7081" stroke="white" stroke-width="1.5"/>
<path d="M21.2167 38.8718C21.2167 39.3776 21.1239 39.8329 20.9385 40.2375C20.7614 40.6422 20.5127 40.9878 20.1924 41.2745C19.8804 41.5611 19.5095 41.7803 19.0796 41.932C18.658 42.0838 18.2028 42.1597 17.7138 42.1597C17.2249 42.1597 16.7654 42.0838 16.3355 41.932C15.9139 41.7803 15.543 41.5611 15.2227 41.2745C14.9107 40.9878 14.662 40.6422 14.4766 40.2375C14.2995 39.8329 14.211 39.3776 14.211 38.8718C14.211 38.366 14.2995 37.9107 14.4766 37.5061C14.662 37.1014 14.9107 36.7558 15.2227 36.4692C15.543 36.1825 15.9139 35.9633 16.3355 35.8116C16.7654 35.6598 17.2249 35.584 17.7138 35.584C18.2028 35.584 18.658 35.6598 19.0796 35.8116C19.5095 35.9633 19.8804 36.1825 20.1924 36.4692C20.5127 36.7558 20.7614 37.1014 20.9385 37.5061C21.1239 37.9107 21.2167 38.366 21.2167 38.8718ZM15.1341 38.8718C15.1341 39.2512 15.1974 39.5968 15.3238 39.9087C15.4503 40.2207 15.6273 40.4904 15.8549 40.7181C16.0826 40.9373 16.3523 41.1059 16.6643 41.2239C16.9846 41.3419 17.3345 41.4009 17.7138 41.4009C18.0932 41.4009 18.4388 41.3419 18.7508 41.2239C19.0711 41.1059 19.3451 40.9373 19.5727 40.7181C19.8004 40.4904 19.9774 40.2207 20.1038 39.9087C20.2303 39.5968 20.2935 39.2512 20.2935 38.8718C20.2935 38.4924 20.2303 38.1468 20.1038 37.8349C19.9774 37.523 19.8004 37.2574 19.5727 37.0382C19.3451 36.8106 19.0711 36.6378 18.7508 36.5197C18.4388 36.4017 18.0932 36.3427 17.7138 36.3427C17.3345 36.3427 16.9846 36.4017 16.6643 36.5197C16.3523 36.6378 16.0826 36.8106 15.8549 37.0382C15.6273 37.2574 15.4503 37.523 15.3238 37.8349C15.1974 38.1468 15.1341 38.4924 15.1341 38.8718ZM23.2529 35.7104L23.3288 36.8738C23.4805 36.6462 23.6491 36.4523 23.8346 36.2921C24.0285 36.1235 24.2308 35.9886 24.4416 35.8875C24.6523 35.7779 24.8673 35.702 25.0865 35.6598C25.3141 35.6093 25.5375 35.584 25.7567 35.584C26.1361 35.584 26.4733 35.6472 26.7684 35.7736C27.0719 35.8917 27.3458 36.1066 27.5903 36.4186L26.958 37.0003C26.781 36.7895 26.5787 36.6378 26.3511 36.545C26.1234 36.4439 25.8747 36.3933 25.605 36.3933C25.1244 36.3933 24.7029 36.5197 24.3404 36.7726C23.9779 37.0171 23.6618 37.3459 23.392 37.759V42.0332H22.4815V35.7104H23.2529ZM34.3176 32.8019V41.7676C34.0647 41.8435 33.8202 41.9067 33.5841 41.9573C33.3565 41.9995 33.1205 42.0374 32.876 42.0711C32.6315 42.1049 32.3701 42.1259 32.0919 42.1344C31.8222 42.1512 31.5229 42.1597 31.1941 42.1597C30.6967 42.1597 30.2457 42.0922 29.841 41.9573C29.4364 41.8224 29.0907 41.6201 28.8041 41.3503C28.5175 41.0721 28.2941 40.7307 28.1339 40.3261C27.9821 39.913 27.9063 39.4324 27.9063 38.8845C27.9063 38.3955 27.9906 37.9487 28.1592 37.544C28.3278 37.1309 28.5638 36.7811 28.8673 36.4944C29.1708 36.2078 29.5291 35.9844 29.9422 35.8242C30.3553 35.6641 30.8021 35.584 31.2826 35.584C31.7294 35.584 32.113 35.6345 32.4334 35.7357C32.7537 35.8369 33.0783 35.9971 33.4071 36.2162V32.8019H34.3176ZM33.4071 37.1394C33.112 36.8949 32.8001 36.7052 32.4713 36.5703C32.151 36.4354 31.7885 36.368 31.3838 36.368C31.0381 36.368 30.7094 36.4228 30.3974 36.5324C30.0939 36.6335 29.8242 36.7895 29.5881 37.0003C29.3605 37.211 29.1793 37.4724 29.0444 37.7843C28.9095 38.0962 28.842 38.4587 28.842 38.8718C28.842 39.3018 28.9053 39.6727 29.0317 39.9846C29.1666 40.2965 29.3521 40.5537 29.5881 40.756C29.8242 40.9583 30.0982 41.1101 30.4101 41.2112C30.7304 41.304 31.0803 41.3503 31.4597 41.3503C31.839 41.3503 32.1763 41.3335 32.4713 41.2998C32.7664 41.266 33.0783 41.2028 33.4071 41.1101V37.1394ZM36.5106 39.0741C36.5359 39.4704 36.6202 39.816 36.7635 40.1111C36.9152 40.3977 37.1091 40.6338 37.3452 40.8192C37.5897 41.0047 37.8637 41.1438 38.1672 41.2365C38.4791 41.3208 38.8079 41.363 39.1535 41.363C39.5919 41.363 39.9881 41.3293 40.3422 41.2618C40.6963 41.1859 41.0335 41.0637 41.3538 40.8951L41.6194 41.6918C41.2316 41.8688 40.848 41.9911 40.4686 42.0585C40.0893 42.1259 39.634 42.1597 39.1029 42.1597C38.5381 42.1597 38.0365 42.0838 37.5981 41.932C37.1597 41.7803 36.793 41.5611 36.4979 41.2745C36.2029 40.9878 35.9753 40.6422 35.8151 40.2375C35.6633 39.8329 35.5875 39.3818 35.5875 38.8845C35.5875 38.3955 35.6718 37.9487 35.8404 37.544C36.0174 37.1309 36.2577 36.7811 36.5612 36.4944C36.8731 36.2078 37.2356 35.9844 37.6487 35.8242C38.0702 35.6641 38.5254 35.584 39.0144 35.584C39.5118 35.584 39.9418 35.6514 40.3043 35.7863C40.6668 35.9127 40.966 36.0898 41.2021 36.3174C41.4466 36.545 41.6278 36.819 41.7459 37.1394C41.8639 37.4513 41.9229 37.7969 41.9229 38.1763C41.9229 38.3449 41.9145 38.5009 41.8976 38.6442C41.8892 38.7791 41.8639 38.9224 41.8217 39.0741H36.5106ZM41.0503 38.3028C41.0503 37.603 40.8775 37.1056 40.5319 36.8106C40.1947 36.5155 39.6551 36.368 38.9132 36.368C38.6266 36.368 38.3484 36.4101 38.0786 36.4944C37.8089 36.5787 37.5644 36.701 37.3452 36.8612C37.126 37.0213 36.9405 37.2237 36.7888 37.4682C36.6455 37.7126 36.557 37.9908 36.5232 38.3028H41.0503ZM43.9625 35.7104L44.0384 36.8738C44.1901 36.6462 44.3587 36.4523 44.5442 36.2921C44.7381 36.1235 44.9404 35.9886 45.1512 35.8875C45.3619 35.7779 45.5769 35.702 45.7961 35.6598C46.0237 35.6093 46.2471 35.584 46.4663 35.584C46.8457 35.584 47.1829 35.6472 47.478 35.7736C47.7814 35.8917 48.0554 36.1066 48.2999 36.4186L47.6676 37.0003C47.4906 36.7895 47.2883 36.6378 47.0606 36.545C46.833 36.4439 46.5843 36.3933 46.3146 36.3933C45.834 36.3933 45.4125 36.5197 45.05 36.7726C44.6875 37.0171 44.3714 37.3459 44.1016 37.759V42.0332H43.1911V35.7104H43.9625ZM53.5288 36.7094C53.2084 36.5745 52.9007 36.4818 52.6056 36.4312C52.3106 36.3806 51.9902 36.3553 51.6446 36.3553C51.0207 36.3553 50.5739 36.4439 50.3041 36.6209C50.0344 36.7895 49.8995 37.0129 49.8995 37.2911C49.8995 37.6368 50.0597 37.877 50.38 38.0119C50.7004 38.1384 51.1472 38.2395 51.7204 38.3154C52.0745 38.366 52.3991 38.4376 52.6941 38.5304C52.9976 38.6147 53.259 38.7369 53.4782 38.8971C53.6974 39.0488 53.8702 39.2427 53.9966 39.4788C54.1231 39.7064 54.1863 39.9804 54.1863 40.3008C54.1863 40.9499 53.9166 41.422 53.377 41.7171C52.8459 42.0121 52.1251 42.1597 51.2146 42.1597C50.7678 42.1597 50.3716 42.1302 50.0259 42.0711C49.6887 42.0206 49.3473 41.9236 49.0016 41.7803L49.2419 40.971C49.5623 41.1143 49.8742 41.2155 50.1777 41.2745C50.4896 41.3335 50.8184 41.363 51.164 41.363C52.5972 41.363 53.3138 41.0047 53.3138 40.2881C53.3138 39.934 53.1662 39.6727 52.8712 39.5041C52.5761 39.3355 52.0914 39.2132 51.4169 39.1374C50.6666 39.0531 50.0765 38.8676 49.6466 38.581C49.225 38.2943 49.0143 37.8812 49.0143 37.3417C49.0143 37.0972 49.0649 36.8696 49.166 36.6588C49.2756 36.4396 49.44 36.2542 49.6592 36.1024C49.8784 35.9423 50.1524 35.8158 50.4812 35.7231C50.8184 35.6303 51.2104 35.584 51.6572 35.584C52.0956 35.584 52.4792 35.6093 52.808 35.6598C53.1367 35.7104 53.4824 35.8074 53.8449 35.9507L53.5288 36.7094ZM5.54025 49.1024C5.9702 48.917 6.38329 48.7863 6.77952 48.7104C7.18418 48.6261 7.6352 48.584 8.13259 48.584C9.0515 48.584 9.72593 48.7526 10.1559 49.0898C10.5858 49.427 10.8008 49.9792 10.8008 50.7464V53.4904C10.8008 53.8277 10.8598 54.0595 10.9778 54.1859C11.0959 54.304 11.3193 54.3714 11.6481 54.3883V55.0332C11.5469 55.0754 11.4415 55.1049 11.3319 55.1217C11.2223 55.147 11.0959 55.1597 10.9526 55.1597C10.6996 55.1597 10.5015 55.0796 10.3582 54.9194C10.2149 54.7592 10.1264 54.4768 10.0927 54.0721C9.72172 54.4684 9.29177 54.7508 8.80281 54.9194C8.32228 55.0796 7.81645 55.1597 7.28534 55.1597C6.52661 55.1597 5.9702 54.9911 5.61612 54.6538C5.27048 54.3082 5.09766 53.8487 5.09766 53.2755C5.09766 52.9888 5.13559 52.7317 5.21147 52.5041C5.29577 52.2765 5.43909 52.0446 5.64142 51.8086C5.92805 51.7243 6.22311 51.6484 6.52661 51.581C6.8301 51.5135 7.15045 51.4587 7.48767 51.4166C7.83331 51.3744 8.20425 51.3407 8.60048 51.3154C8.99671 51.2901 9.43087 51.269 9.90297 51.2522V50.7843C9.90297 50.5398 9.87347 50.3291 9.81445 50.152C9.75544 49.975 9.65428 49.8317 9.51096 49.7221C9.36764 49.604 9.17796 49.5197 8.94191 49.4692C8.70586 49.4101 8.41501 49.3806 8.06937 49.3806C7.67314 49.3806 7.29377 49.4186 6.93126 49.4944C6.57719 49.5703 6.19361 49.6926 5.78052 49.8612L5.54025 49.1024ZM9.90297 51.9224C9.0768 51.9393 8.3855 51.9856 7.8291 52.0615C7.28112 52.1289 6.79216 52.2175 6.36221 52.3271C6.24419 52.4704 6.15988 52.6137 6.1093 52.757C6.05872 52.8919 6.03343 53.0394 6.03343 53.1996C6.03343 53.9752 6.48024 54.363 7.37386 54.363C7.85439 54.363 8.3012 54.2955 8.71429 54.1607C9.12738 54.0173 9.52361 53.7602 9.90297 53.3893V51.9224ZM13.4412 48.7104L13.5423 49.8485C13.8374 49.3933 14.1999 49.0687 14.6298 48.8748C15.0682 48.6809 15.5572 48.584 16.0967 48.584C16.9398 48.584 17.5889 48.8158 18.0442 49.2795C18.5078 49.7431 18.7397 50.4302 18.7397 51.3407V55.0332H17.8292V51.3281C17.8292 50.7042 17.6901 50.2237 17.4119 49.8865C17.1337 49.5408 16.6953 49.368 16.0967 49.368C15.4982 49.368 15.005 49.4818 14.6172 49.7094C14.2294 49.937 13.888 50.2911 13.5929 50.7716V55.0332H12.6824V48.7104H13.4412ZM26.4203 45.8019V54.7676C26.1673 54.8435 25.9229 54.9067 25.6868 54.9573C25.4592 54.9995 25.2231 55.0374 24.9787 55.0711C24.7342 55.1049 24.4728 55.1259 24.1946 55.1344C23.9249 55.1512 23.6256 55.1597 23.2968 55.1597C22.7994 55.1597 22.3484 55.0922 21.9437 54.9573C21.5391 54.8224 21.1934 54.6201 20.9068 54.3503C20.6202 54.0721 20.3968 53.7307 20.2366 53.3261C20.0848 52.913 20.009 52.4324 20.009 51.8845C20.009 51.3955 20.0933 50.9487 20.2619 50.544C20.4305 50.1309 20.6665 49.7811 20.97 49.4944C21.2735 49.2078 21.6318 48.9844 22.0449 48.8242C22.458 48.6641 22.9048 48.584 23.3853 48.584C23.8321 48.584 24.2157 48.6345 24.5361 48.7357C24.8564 48.8369 25.181 48.9971 25.5098 49.2162V45.8019H26.4203ZM25.5098 50.1394C25.2147 49.8949 24.9028 49.7052 24.574 49.5703C24.2537 49.4354 23.8911 49.368 23.4865 49.368C23.1408 49.368 22.8121 49.4228 22.5001 49.5324C22.1966 49.6335 21.9269 49.7895 21.6908 50.0003C21.4632 50.211 21.2819 50.4724 21.1471 50.7843C21.0122 51.0962 20.9447 51.4587 20.9447 51.8718C20.9447 52.3018 21.008 52.6727 21.1344 52.9846C21.2693 53.2965 21.4548 53.5537 21.6908 53.756C21.9269 53.9583 22.2009 54.1101 22.5128 54.2112C22.8331 54.304 23.183 54.3503 23.5624 54.3503C23.9417 54.3503 24.2789 54.3335 24.574 54.2998C24.8691 54.266 25.181 54.2028 25.5098 54.1101V50.1394ZM32.5451 48.7104L32.6336 49.8738C32.9877 49.3764 33.3755 49.0392 33.797 48.8622C34.2269 48.6767 34.6611 48.584 35.0995 48.584C35.639 48.584 36.0816 48.6851 36.4273 48.8875C36.7729 49.0898 37.0553 49.4059 37.2745 49.8359C37.637 49.3891 38.0332 49.0687 38.4632 48.8748C38.8931 48.6809 39.361 48.584 39.8668 48.584C40.7183 48.584 41.3422 48.8116 41.7384 49.2668C42.1431 49.7221 42.3454 50.4134 42.3454 51.3407V55.0332H41.4349V51.366C41.4349 50.7084 41.3127 50.211 41.0682 49.8738C40.8237 49.5366 40.4233 49.368 39.8668 49.368C39.361 49.368 38.9142 49.4776 38.5264 49.6968C38.1471 49.916 37.8098 50.2279 37.5148 50.6325C37.5316 50.7506 37.5443 50.8644 37.5527 50.974C37.5696 51.0751 37.578 51.1974 37.578 51.3407V55.0332H36.6675V51.3533C36.6675 50.7211 36.5453 50.2321 36.3008 49.8865C36.0563 49.5408 35.6559 49.368 35.0995 49.368C34.5515 49.368 34.0794 49.4902 33.6832 49.7347C33.2954 49.9708 32.9708 50.3038 32.7095 50.7337V55.0332H31.799V48.7104H32.5451ZM50.6139 51.8718C50.6139 52.3776 50.5212 52.8329 50.3357 53.2375C50.1587 53.6422 49.91 53.9878 49.5896 54.2745C49.2777 54.5611 48.9067 54.7803 48.4768 54.932C48.0553 55.0838 47.6 55.1597 47.1111 55.1597C46.6221 55.1597 46.1627 55.0838 45.7327 54.932C45.3112 54.7803 44.9403 54.5611 44.6199 54.2745C44.308 53.9878 44.0593 53.6422 43.8738 53.2375C43.6968 52.8329 43.6083 52.3776 43.6083 51.8718C43.6083 51.366 43.6968 50.9107 43.8738 50.5061C44.0593 50.1014 44.308 49.7558 44.6199 49.4692C44.9403 49.1825 45.3112 48.9633 45.7327 48.8116C46.1627 48.6598 46.6221 48.584 47.1111 48.584C47.6 48.584 48.0553 48.6598 48.4768 48.8116C48.9067 48.9633 49.2777 49.1825 49.5896 49.4692C49.91 49.7558 50.1587 50.1014 50.3357 50.5061C50.5212 50.9107 50.6139 51.366 50.6139 51.8718ZM44.5314 51.8718C44.5314 52.2512 44.5946 52.5968 44.7211 52.9087C44.8475 53.2207 45.0246 53.4904 45.2522 53.7181C45.4798 53.9373 45.7496 54.1059 46.0615 54.2239C46.3819 54.3419 46.7317 54.4009 47.1111 54.4009C47.4904 54.4009 47.8361 54.3419 48.148 54.2239C48.4684 54.1059 48.7424 53.9373 48.97 53.7181C49.1976 53.4904 49.3746 53.2207 49.5011 52.9087C49.6275 52.5968 49.6908 52.2512 49.6908 51.8718C49.6908 51.4924 49.6275 51.1468 49.5011 50.8349C49.3746 50.523 49.1976 50.2574 48.97 50.0382C48.7424 49.8106 48.4684 49.6378 48.148 49.5197C47.8361 49.4017 47.4904 49.3427 47.1111 49.3427C46.7317 49.3427 46.3819 49.4017 46.0615 49.5197C45.7496 49.6378 45.4798 49.8106 45.2522 50.0382C45.0246 50.2574 44.8475 50.523 44.7211 50.8349C44.5946 51.1468 44.5314 51.4924 44.5314 51.8718ZM52.6501 48.7104L52.726 49.8738C52.8778 49.6462 53.0464 49.4523 53.2318 49.2921C53.4257 49.1235 53.6281 48.9886 53.8388 48.8875C54.0496 48.7779 54.2646 48.702 54.4837 48.6598C54.7114 48.6093 54.9348 48.584 55.154 48.584C55.5333 48.584 55.8705 48.6472 56.1656 48.7736C56.4691 48.8917 56.7431 49.1066 56.9876 49.4186L56.3553 50.0003C56.1782 49.7895 55.9759 49.6378 55.7483 49.545C55.5207 49.4439 55.272 49.3933 55.0022 49.3933C54.5217 49.3933 54.1002 49.5197 53.7377 49.7726C53.3751 50.0171 53.059 50.3459 52.7892 50.759V55.0332H51.8788V48.7104H52.6501ZM58.2266 52.0741C58.2519 52.4704 58.3362 52.816 58.4795 53.1111C58.6313 53.3977 58.8252 53.6338 59.0612 53.8192C59.3057 54.0047 59.5797 54.1438 59.8832 54.2365C60.1951 54.3208 60.5239 54.363 60.8696 54.363C61.3079 54.363 61.7042 54.3293 62.0582 54.2618C62.4123 54.1859 62.7495 54.0637 63.0699 53.8951L63.3354 54.6918C62.9476 54.8688 62.5641 54.9911 62.1847 55.0585C61.8053 55.1259 61.3501 55.1597 60.819 55.1597C60.2541 55.1597 59.7525 55.0838 59.3142 54.932C58.8758 54.7803 58.5091 54.5611 58.214 54.2745C57.9189 53.9878 57.6913 53.6422 57.5311 53.2375C57.3794 52.8329 57.3035 52.3818 57.3035 51.8845C57.3035 51.3955 57.3878 50.9487 57.5564 50.544C57.7335 50.1309 57.9737 49.7811 58.2772 49.4944C58.5891 49.2078 58.9516 48.9844 59.3647 48.8242C59.7863 48.6641 60.2415 48.584 60.7305 48.584C61.2278 48.584 61.6578 48.6514 62.0203 48.7863C62.3828 48.9127 62.6821 49.0898 62.9181 49.3174C63.1626 49.545 63.3439 49.819 63.4619 50.1394C63.5799 50.4513 63.6389 50.7969 63.6389 51.1763C63.6389 51.3449 63.6305 51.5009 63.6136 51.6442C63.6052 51.7791 63.5799 51.9224 63.5378 52.0741H58.2266ZM62.7664 51.3028C62.7664 50.603 62.5936 50.1056 62.2479 49.8106C61.9107 49.5155 61.3712 49.368 60.6293 49.368C60.3427 49.368 60.0645 49.4101 59.7947 49.4944C59.5249 49.5787 59.2804 49.701 59.0612 49.8612C58.8421 50.0213 58.6566 50.2237 58.5048 50.4682C58.3615 50.7126 58.273 50.9908 58.2393 51.3028H62.7664Z" fill="white"/>
<path d="M32.1348 19.7877H30.9234C30.8767 19.7877 30.8319 19.8065 30.7989 19.8398C30.7659 19.8732 30.7473 19.9184 30.7473 19.9656V21.1895C30.7473 21.2367 30.7659 21.2819 30.7989 21.3153C30.8319 21.3487 30.8767 21.3674 30.9234 21.3674H32.1348C32.1815 21.3674 32.2262 21.3487 32.2593 21.3153C32.2923 21.2819 32.3108 21.2367 32.3108 21.1895V19.9656C32.3108 19.9184 32.2923 19.8732 32.2593 19.8398C32.2262 19.8065 32.1815 19.7877 32.1348 19.7877ZM31.9587 21.0116H31.0995V20.1435H31.9587V21.0116Z" fill="white"/>
<path d="M38.0414 23.3153C38.4569 22.6287 38.9094 21.7303 38.9094 21.218C38.9091 20.7469 38.724 20.2951 38.3946 19.9616C38.0652 19.6282 37.6185 19.4403 37.1522 19.439V17.8682C37.1522 17.8664 37.1505 17.8647 37.1505 17.8611C37.1506 17.8403 37.1464 17.8197 37.1381 17.8006V17.7989L36.4708 16.1551C36.4414 16.0905 36.3939 16.036 36.3341 15.9983C36.2743 15.9607 36.2049 15.9416 36.1345 15.9434H36.1152V15.0735C36.1152 15.0263 36.0966 14.9811 36.0636 14.9477C36.0306 14.9144 35.9858 14.8956 35.9391 14.8956H33.5182C33.4715 14.8956 33.4267 14.9144 33.3937 14.9477C33.3607 14.9811 33.3421 15.0263 33.3421 15.0735V15.9434H30.9001C30.8297 15.9418 30.7604 15.961 30.7007 15.9986C30.641 16.0362 30.5934 16.0906 30.5638 16.1551L29.8965 17.7989V17.8006C29.889 17.8199 29.8848 17.8404 29.8841 17.8611C29.8841 17.8647 29.8824 17.8664 29.8824 17.8682V23.2815C29.7906 23.2828 29.7031 23.3204 29.6385 23.3863C29.574 23.4522 29.5376 23.541 29.5373 23.6338V24.509C29.5375 24.6023 29.5743 24.6918 29.6397 24.7578C29.705 24.8238 29.7935 24.861 29.8859 24.8612H35.9585C36.3443 24.9794 36.7455 25.0381 37.1487 25.0356C38.1083 25.0356 39.1259 24.7189 39.1259 24.1301C39.1259 23.7636 38.7175 23.4612 38.0414 23.3153ZM37.1487 19.7948C37.5221 19.7953 37.8801 19.9454 38.1441 20.2122C38.4082 20.479 38.5567 20.8407 38.5572 21.218C38.5572 21.6769 38.0502 22.6571 37.6082 23.3509C37.6078 23.3509 37.6073 23.3511 37.607 23.3514C37.6067 23.3518 37.6065 23.3522 37.6065 23.3527C37.4709 23.5644 37.3424 23.7512 37.2367 23.8864C37.2261 23.8997 37.2127 23.9104 37.1975 23.9178C37.1823 23.9252 37.1656 23.929 37.1487 23.929C37.1318 23.929 37.1151 23.9252 37.0999 23.9178C37.0846 23.9104 37.0712 23.8997 37.0607 23.8864C36.955 23.7512 36.8265 23.5644 36.6909 23.3527V23.3509C36.249 22.6571 35.7402 21.6769 35.7402 21.218C35.7407 20.8407 35.8892 20.479 36.1533 20.2122C36.4173 19.9454 36.7753 19.7953 37.1487 19.7948ZM35.4003 21.0116H35.0764V20.1435H35.749C35.5574 20.3958 35.437 20.6958 35.4003 21.0116ZM36.8001 18.5745C36.7996 18.711 36.7456 18.8417 36.6499 18.9381C36.5542 19.0345 36.4246 19.0886 36.2895 19.0886H36.2789C36.1438 19.0886 36.0142 19.0345 35.9185 18.9381C35.8228 18.8417 35.7688 18.711 35.7683 18.5745V18.0461H36.8001V18.5745ZM36.1345 16.2992C36.1416 16.2992 36.1469 16.301 36.1469 16.2974L36.7138 17.6903H35.7243L35.3105 16.2992H36.1345ZM34.3844 18.0461H35.4162V18.5745C35.4157 18.7107 35.362 18.8412 35.2666 18.9375C35.1713 19.0338 35.0422 19.0881 34.9074 19.0886H34.895C34.7599 19.0886 34.6303 19.0345 34.5346 18.9381C34.4389 18.8417 34.3849 18.711 34.3844 18.5745V18.0461ZM34.3686 17.6903L34.2313 16.2992H34.9426L35.3563 17.6903H34.3686ZM33.6942 15.2514H35.763V15.9434H33.6942V15.2514ZM33.1572 16.2992H33.8774L34.0147 17.6903H33.0199L33.1572 16.2992ZM33.0023 18.0461H34.0323V18.5745C34.0322 18.7108 33.9786 18.8415 33.8832 18.9379C33.7878 19.0344 33.6584 19.0885 33.5235 19.0886H33.5111C33.3763 19.0881 33.2472 19.0338 33.1518 18.9375C33.0565 18.8412 33.0028 18.7107 33.0023 18.5745V18.0461ZM32.8033 16.2992L32.666 17.6903H31.6783L32.092 16.2992H32.8033ZM32.6502 18.0461V18.5745C32.6497 18.711 32.5957 18.8417 32.5 18.9381C32.4043 19.0345 32.2747 19.0886 32.1396 19.0886H32.1272C31.9924 19.0881 31.8633 19.0338 31.768 18.9375C31.6726 18.8412 31.6189 18.7107 31.6184 18.5745V18.0461H32.6502ZM30.8807 16.3045C30.8864 16.3007 30.8932 16.2988 30.9001 16.2992H31.7241L31.3121 17.6903H30.3208L30.8807 16.3045ZM30.2345 18.0461H31.2663V18.5745C31.2658 18.7107 31.2121 18.8412 31.1167 18.9375C31.0214 19.0338 30.8922 19.0881 30.7574 19.0886H30.7451C30.61 19.0886 30.4804 19.0345 30.3847 18.9381C30.289 18.8417 30.235 18.711 30.2345 18.5745V18.0461ZM30.2345 19.2718C30.382 19.3831 30.561 19.4436 30.7451 19.4444H30.7574C30.8905 19.4439 31.0217 19.4121 31.1406 19.3516C31.2594 19.2911 31.3627 19.2035 31.4423 19.0957C31.5219 19.2035 31.6253 19.2911 31.7441 19.3516C31.863 19.4121 31.9941 19.4439 32.1272 19.4444H32.1396C32.2729 19.4438 32.4043 19.412 32.5234 19.3515C32.6426 19.291 32.7462 19.2035 32.8262 19.0957C32.9058 19.2035 33.0091 19.2911 33.128 19.3516C33.2469 19.4121 33.378 19.4439 33.5111 19.4444H33.5235C33.6566 19.4441 33.7878 19.4124 33.9067 19.3519C34.0256 19.2913 34.1289 19.2036 34.2084 19.0957C34.2884 19.2035 34.392 19.291 34.5111 19.3515C34.6303 19.412 34.7617 19.4438 34.895 19.4444H34.9074C35.0405 19.4439 35.1716 19.4121 35.2905 19.3516C35.4093 19.2911 35.5127 19.2035 35.5923 19.0957C35.6723 19.2035 35.7759 19.291 35.895 19.3515C36.0142 19.412 36.1456 19.4438 36.2789 19.4444H36.2895C36.4736 19.4439 36.6527 19.3833 36.8001 19.2718V19.4728C36.5485 19.5259 36.3112 19.6333 36.1046 19.7877H34.9003C34.8536 19.7877 34.8088 19.8064 34.7758 19.8398C34.7428 19.8732 34.7242 19.9184 34.7242 19.9656V21.1895C34.7242 21.2367 34.7428 21.2819 34.7758 21.3153C34.8088 21.3487 34.8536 21.3674 34.9003 21.3674H35.3986C35.469 21.8833 35.8634 22.6625 36.2349 23.2815H34.3844V21.7072C34.3844 21.4748 34.2931 21.252 34.1305 21.0877C33.9678 20.9233 33.7473 20.831 33.5173 20.831C33.2873 20.831 33.0668 20.9233 32.9041 21.0877C32.7415 21.252 32.6502 21.4748 32.6502 21.7072V23.2815H30.2345V19.2718ZM34.0323 21.7072V23.2815H33.0023V21.7072C33.0023 21.5692 33.0566 21.4368 33.1531 21.3392C33.2497 21.2417 33.3807 21.1868 33.5173 21.1868C33.6539 21.1868 33.7849 21.2417 33.8815 21.3392C33.978 21.4368 34.0323 21.5692 34.0323 21.7072ZM35.1715 24.1301C35.175 24.2717 35.2331 24.4064 35.3334 24.5054L29.8894 24.509L29.8859 23.6373H35.4637C35.3794 23.6897 35.3089 23.7618 35.258 23.8476C35.2071 23.9334 35.1774 24.0303 35.1715 24.1301ZM37.1487 24.6798C36.1574 24.6798 35.5236 24.3542 35.5236 24.1301C35.5236 23.9878 35.8176 23.7529 36.4585 23.6391C36.5853 23.8348 36.7015 23.9984 36.786 24.107C36.8292 24.1624 36.8843 24.2072 36.9471 24.238C37.0099 24.2688 37.0789 24.2848 37.1487 24.2848C37.2185 24.2848 37.2874 24.2688 37.3503 24.238C37.4131 24.2072 37.4682 24.1624 37.5114 24.107C37.5959 23.9984 37.7121 23.8348 37.8389 23.6391C38.4798 23.7529 38.7738 23.9878 38.7738 24.1301C38.7738 24.3542 38.1417 24.6798 37.1487 24.6798Z" fill="white"/>
<path d="M37.1474 20.313C36.9701 20.313 36.7969 20.3661 36.6495 20.4656C36.5021 20.5651 36.3872 20.7065 36.3194 20.872C36.2516 21.0374 36.2338 21.2195 36.2684 21.3951C36.303 21.5708 36.3883 21.7321 36.5137 21.8587C36.639 21.9854 36.7987 22.0716 36.9725 22.1065C37.1464 22.1415 37.3266 22.1236 37.4903 22.055C37.6541 21.9865 37.794 21.8704 37.8925 21.7215C37.991 21.5726 38.0436 21.3976 38.0436 21.2185C38.0435 20.9783 37.9491 20.748 37.781 20.5782C37.613 20.4084 37.385 20.313 37.1474 20.313ZM37.1474 21.7682C37.0398 21.7682 36.9346 21.7359 36.8451 21.6755C36.7556 21.6151 36.6859 21.5293 36.6447 21.4288C36.6036 21.3284 36.5928 21.2179 36.6138 21.1112C36.6348 21.0046 36.6866 20.9067 36.7627 20.8298C36.8388 20.7529 36.9357 20.7005 37.0412 20.6793C37.1468 20.6581 37.2562 20.669 37.3556 20.7106C37.455 20.7522 37.54 20.8227 37.5997 20.9131C37.6595 21.0035 37.6914 21.1097 37.6914 21.2185C37.691 21.3641 37.6335 21.5037 37.5316 21.6066C37.4296 21.7096 37.2915 21.7677 37.1474 21.7682Z" fill="white"/>
</svg>
